<?xml version="1.0" encoding="UTF-8" standalone="no"?>
<!-- Created with Inkscape (http://www.inkscape.org/) -->

<svg
   width="210mm"
   height="297mm"
   viewBox="0 0 210 297"
   version="1.1"
   id="svg1"
   xml:space="preserve"
   inkscape:version="1.3.2 (091e20ef0f, 2023-11-25)"
   sodipodi:docname="dont-panic.svg"
   xmlns:inkscape="http://www.inkscape.org/namespaces/inkscape"
   xmlns:sodipodi="http://sodipodi.sourceforge.net/DTD/sodipodi-0.dtd"
   xmlns="http://www.w3.org/2000/svg"
   xmlns:svg="http://www.w3.org/2000/svg"><sodipodi:namedview
     id="namedview1"
     pagecolor="#000000"
     bordercolor="#000000"
     borderopacity="0.25"
     inkscape:showpageshadow="2"
     inkscape:pageopacity="0.0"
     inkscape:pagecheckerboard="0"
     inkscape:deskcolor="#d1d1d1"
     inkscape:document-units="mm"
     inkscape:zoom="0.65344066"
     inkscape:cx="864.65388"
     inkscape:cy="423.14477"
     inkscape:window-width="3072"
     inkscape:window-height="1696"
     inkscape:window-x="0"
     inkscape:window-y="0"
     inkscape:window-maximized="1"
     inkscape:current-layer="layer1"
     showgrid="false" /><defs
     id="defs1" /><g
     inkscape:label="Layer 1"
     inkscape:groupmode="layer"
     id="layer1"><path
       style="fill:#ffffff;stroke-width:0.577617;fill-opacity:1"
       d="m 175.69283,286.31106 c -4.51076,-0.20583 -8.46072,-1.12429 -11.48763,-2.67115 -4.06878,-2.07929 -6.44945,-5.08329 -7.57462,-9.55787 -0.38158,-1.51747 -0.41537,-1.89687 -0.41916,-4.70706 -0.005,-3.38231 0.16769,-4.55883 1.00718,-6.87885 1.82222,-5.03595 6.41884,-8.44214 13.08623,-9.69716 2.60927,-0.49115 4.16329,-0.61452 7.75777,-0.61586 3.88766,-0.002 6.49068,0.25595 9.17819,0.90756 6.90731,1.67476 11.04423,5.41852 12.20329,11.04352 0.13349,0.64789 0.24272,1.49035 0.24272,1.87214 v 0.69417 h -7.23944 -7.23943 l -0.17294,-0.87876 c -0.78585,-3.99342 -4.50957,-6.00444 -9.26574,-5.00403 -3.00678,0.63245 -4.95638,2.64576 -5.67056,5.85589 -0.30804,1.38459 -0.22237,4.72465 0.15082,5.87968 1.10598,3.42304 3.84397,5.29834 7.73574,5.29834 3.5044,0 5.80887,-1.41332 6.80914,-4.17598 l 0.33978,-0.93845 7.35273,-0.0397 c 6.0894,-0.0329 7.35273,-0.004 7.35273,0.16659 0,0.40102 -0.619,2.6364 -0.98437,3.55481 -1.96933,4.95029 -6.67196,8.1923 -13.61069,9.38327 -0.92461,0.1587 -2.78029,0.36157 -4.12374,0.45082 -2.32062,0.15417 -3.13153,0.16284 -5.428,0.058 z M 9.8746665,269.22215 V 252.946 H 22.762073 c 8.240658,0 13.489353,0.0605 14.556852,0.16776 6.410017,0.64414 10.464593,3.63798 11.304014,8.34672 1.101475,6.17872 -2.343547,10.81918 -9.044486,12.18297 -1.931892,0.39319 -4.831869,0.53435 -11.097002,0.54021 l -5.769249,0.005 v 5.65463 5.65463 H 16.293435 9.8746665 Z m 22.5287395,-2.60101 c 0.490269,-0.1277 1.097298,-0.37879 1.348955,-0.55798 1.466546,-1.04427 1.360149,-4.35132 -0.168231,-5.22886 -1.033114,-0.59317 -2.033876,-0.70051 -6.554542,-0.70301 l -4.317386,-0.002 v 3.36221 3.36221 H 27.1121 c 3.442735,0 4.593816,-0.0505 5.291306,-0.23218 z m 13.469459,18.68614 c 0.04072,-0.10507 3.222605,-7.41215 7.070816,-16.23795 l 6.99675,-16.04692 8.094,-0.0395 8.09402,-0.0395 6.57013,16.14372 c 3.61357,8.87905 6.59306,16.20392 6.62107,16.27748 0.0286,0.0753 -2.99101,0.13376 -6.90272,0.13376 h -6.95367 l -0.52213,-1.56649 -0.52213,-1.56648 -6.86634,-0.0397 -6.86633,-0.0397 -0.28381,0.80388 c -0.15611,0.44213 -0.41814,1.16493 -0.5823,1.60623 l -0.29848,0.80234 h -6.861474 c -5.426797,0 -6.845984,-0.04 -6.787402,-0.19104 z m 25.593016,-11.23285 c 0.001,-0.063 -0.83506,-2.54256 -1.85765,-5.51004 l -1.85925,-5.39542 -1.96305,5.37148 c -1.07968,2.95432 -1.96305,5.43384 -1.96305,5.51005 0,0.0792 1.63772,0.13856 3.8207,0.13856 2.10138,0 3.82141,-0.0516 3.8223,-0.11463 z m 19.866,-4.8537 v -16.27759 l 7.6016,0.0396 7.601609,0.0396 6.1911,9.18423 6.19112,9.18423 0.0394,-9.22243 0.0394,-9.22244 h 6.18835 6.18834 v 16.27616 16.27616 l -7.22112,-0.008 -7.22111,-0.008 -6.72442,-9.34465 -6.72443,-9.34467 -0.0394,9.35288 -0.0394,9.35286 h -6.035499 -6.03553 z m 46.918139,10e-4 v -16.27616 h 6.41877 6.41877 v 16.27616 16.27616 h -6.41877 -6.41877 z m -66.021609,-23.4689 c -8.48176,-0.92568 -13.78825,-4.19184 -16.074734,-9.89403 -0.717573,-1.78954 -1.046353,-3.53086 -1.14538,-6.06636 -0.323563,-8.28462 3.050334,-13.68931 10.190034,-16.32357 3.30757,-1.22036 6.60697,-1.69613 11.76774,-1.69689 6.23737,-0.001 10.16237,0.75331 13.90733,2.67243 2.98185,1.52806 5.07554,3.63996 6.42809,6.48401 1.33679,2.8109 1.87824,6.26747 1.5428,9.84903 -0.37804,4.0362 -1.60464,7.04534 -3.8226,9.37766 -2.69405,2.83296 -6.38083,4.52798 -11.71326,5.38525 -1.81787,0.29225 -9.07405,0.4314 -11.08002,0.21247 z m 7.43573,-8.63722 c 3.73736,-0.97347 5.77762,-4.31378 5.49978,-9.00428 -0.15015,-2.53475 -0.75822,-4.17412 -2.08791,-5.62901 -1.40066,-1.53254 -3.3929,-2.27582 -6.10994,-2.27954 -2.64886,-0.003 -4.60885,0.68579 -6.05759,2.13072 -1.47576,1.47189 -2.1898,3.58014 -2.1898,6.46555 0,5.01385 2.27506,7.94825 6.63722,8.56075 1.16611,0.16373 3.18045,0.0496 4.30824,-0.24419 z M 9.8746665,228.78525 v -16.36637 l 12.2644355,0.07 c 13.412599,0.0766 13.87914,0.10392 17.434614,1.02066 3.452838,0.89028 6.152735,2.3859 8.227771,4.55781 1.939626,2.03019 3.038126,4.27539 3.559327,7.27485 0.301724,1.73639 0.307599,5.29947 0.01155,6.99004 -1.351947,7.71961 -7.261638,11.95839 -17.656535,12.66432 -1.218806,0.0828 -7.081658,0.15152 -13.02857,0.15276 l -10.8125665,0.002 z m 23.0005885,7.14064 c 3.512015,-0.99157 5.000447,-3.17481 5.015003,-7.35608 0.01496,-4.29122 -1.578102,-6.55938 -5.271182,-7.50509 -0.739609,-0.18939 -2.015657,-0.26526 -5.436657,-0.32323 l -4.470217,-0.0757 v 7.82435 7.82436 l 4.623043,-0.0648 c 3.735772,-0.0524 4.799026,-0.11453 5.54001,-0.32373 z m 71.141335,-7.05042 v -16.27616 h 7.54167 7.54166 l 6.17463,9.15593 6.17463,9.15593 0.0394,-9.15593 0.0394,-9.15593 h 6.18833 6.18834 v 16.27616 16.27616 h -7.15359 -7.15359 l -6.71553,-9.3123 -6.71553,-9.31229 -0.0394,9.31229 -0.0394,9.3123 h -6.03553 -6.03552 z m 71.37059,4.12635 v -12.14981 h -5.88387 -5.88387 v -4.12635 -4.12635 h 18.1865 18.18651 v 4.12635 4.12635 h -5.88387 -5.88386 v 12.14981 12.14981 h -6.41878 -6.41876 z m -24.91093,-10.31573 v -10.08663 h 4.66124 4.66125 v 10.08663 10.08664 h -4.66125 -4.66124 z m 32.24666,-28.44466 c -8.5731,-0.9863 -20.0474,-4.95087 -32.76604,-11.32125 l -2.12407,-1.06388 -1.46738,0.68988 c -11.15345,5.24371 -24.05147,8.19241 -35.85364,8.19672 l -2.29242,5.7e-4 4.81407,-4.77904 c 2.64775,-2.62848 7.25944,-7.16046 10.24821,-10.07107 l 5.43413,-5.29203 0.83181,0.53067 c 3.68641,2.35177 12.73316,7.57055 16.90237,9.75044 l 1.3991,0.73152 2.07459,-1.07729 c 2.89525,-1.50344 6.66774,-3.7673 6.50174,-3.90167 -0.0359,-0.0291 -1.13124,-0.60704 -2.43409,-1.28443 -6.33768,-3.29511 -19.01913,-10.88586 -18.87795,-11.29979 0.0335,-0.0981 0.36849,-0.57954 0.74448,-1.06979 4.85863,-6.33512 8.3231,-21.08936 7.99652,-34.05501 -0.15379,-6.10582 -0.77723,-9.35688 -2.88275,-15.03271 -3.66506,-9.87985 -9.91503,-18.396201 -17.69869,-24.116641 -4.12592,-3.03225 -8.35092,-5.10964 -13.21482,-6.49758 -1.1794,-0.33656 -2.5614,-0.80924 -3.0711,-1.05041 -2.6963,-1.27553 -5.42241,-3.5341 -11.600989,-9.61109 -5.32451,-5.23696 -7.58655,-7.31007 -11.69549,-10.71869 -4.09286,-3.39526 -4.7667,-3.91605 -6.11727,-4.72776 -6.32886,-3.80376 -15.58334,-3.2489 -22.537947,1.35127 -2.092741,1.38425 -4.641706,4.13569 -5.419496,5.84998 -0.446296,0.98366 -0.415584,2.12947 0.07262,2.70967 0.617519,0.73388 1.492672,0.93414 5.499699,1.25845 2.017334,0.16327 4.207724,0.36948 4.867544,0.45824 3.68603,0.49583 7.9938,2.61631 12.32559,6.06723 1.95244,1.55541 4.93783,4.59057 5.91513,6.01374 0.8506,1.23867 1.02719,1.6335 2.21361,4.94912 1.87957,5.25281 3.80858,9.35318 5.89558,12.53188 1.42018,2.163071 2.51731,3.544971 4.55007,5.731041 4.6882,5.04179 7.34645,9.47398 8.24551,13.74799 0.33462,1.59068 0.29814,4.22212 -0.0806,5.81397 -0.39438,1.65765 -1.56363,4.06206 -2.72322,5.59992 -0.96286,1.27697 -3.20424,3.60618 -3.40222,3.53555 -0.15128,-0.054 -4.20884,-3.51713 -7.47069,-6.37629 -21.94321,-19.23418 -41.696737,-40.287951 -53.031249,-56.521961 -0.714472,-1.02331 -1.335543,-1.86191 -1.380152,-1.86355 -0.04459,-0.002 -0.158423,0.18614 -0.252904,0.41729 -0.09448,0.23115 -0.621839,1.50298 -1.17191,2.82629 -1.023028,2.46111 -2.391183,6.2424 -2.391183,6.60872 0,0.47323 7.444003,10.02852 11.895765,15.26967 13.145376,15.476311 29.580713,31.652721 46.839843,46.101931 0.0694,0.0581 -3.05934,3.08859 -6.9527,6.73446 -9.63874,9.02599 -17.02474,15.97777 -21.64561,20.37308 -2.126785,2.02297 -3.922619,3.6979 -3.990731,3.72207 -0.185687,0.0659 -2.876544,-2.36249 -5.209157,-4.70103 -11.067792,-11.09588 -18.891688,-24.93996 -22.674391,-40.12146 -0.990457,-3.97508 -1.660775,-7.77821 -2.168397,-12.30263 -0.335814,-2.9931 -0.466523,-11.23757 -0.231618,-14.609461 0.429776,-6.16911 1.487444,-12.22405 3.142553,-17.9905 l 0.688855,-2.39999 -0.980586,-1.35529 c -4.217677,-5.82939 -8.518433,-12.90293 -11.393521,-18.73918 -2.499955,-5.07475 -4.085854,-9.30671 -4.9539665,-13.21961 -1.397348,-6.29839 -0.695768,-11.42349 1.9829595,-14.48568 5.529439,-6.32098 19.489099,-5.28051 38.574871,2.87513 1.723135,0.73632 3.797791,1.64888 4.610353,2.0279 l 1.477377,0.68913 1.732009,-1.30082 c 2.06228,-1.54888 5.31198,-3.71668 7.84512,-5.2333 2.47698,-1.483 8.63309,-4.50838 11.53017,-5.66642 8.00842,-3.20121 16.46323,-5.13911 25.367249,-5.81434 3.11155,-0.23596 11.86956,-0.10351 14.75837,0.2232 11.48421,1.29881 21.40548,4.23255 31.3297,9.26426 8.76666,4.4448 16.17624,9.82053 23.16059,16.80324 6.74375,6.74216 11.36607,13.12995 15.48709,21.40228 4.56883,9.17123 7.11705,18.09015 8.29624,29.03728 0.34083,3.16404 0.38927,12.727871 0.0801,15.817681 -1.22091,12.20252 -4.12159,22.66682 -9.20491,33.20694 l -1.20018,2.48855 1.26802,1.86704 c 7.86341,11.57818 12.90956,22.53278 14.09122,30.59048 0.31292,2.13376 0.22528,5.93282 -0.17117,7.42033 -1.27407,4.78041 -4.81182,7.59865 -10.53846,8.39516 -1.35916,0.18904 -5.74445,0.18412 -7.41721,-0.008 z m 5.88387,-9.04781 c 7.30741,-2.39949 6.52271,-11.51914 -2.25756,-26.23672 -1.79664,-3.01155 -4.39165,-6.89454 -4.5445,-6.80007 -0.0727,0.0449 -0.59398,0.75085 -1.15843,1.56873 -4.37698,6.34218 -10.223,12.49217 -17.12392,18.01426 -1.35059,1.08073 -3.35797,2.61774 -4.46085,3.41559 -1.53296,1.10897 -1.96124,1.49119 -1.81842,1.62285 0.25851,0.23832 5.55274,2.73933 8.05744,3.80635 4.43363,1.88876 8.43842,3.26893 11.96592,4.12381 3.37779,0.81861 4.74334,0.98642 7.59604,0.93347 2.23447,-0.0415 2.6609,-0.0925 3.74428,-0.44827 z m -19.48321,-57.55063 c 0.54765,-0.17136 1.42241,-0.57168 1.94391,-0.8896 1.10894,-0.67605 9.99553,-8.15504 10.86917,-9.14754 0.75521,-0.85797 1.62393,-2.50456 1.93666,-3.67082 0.29557,-1.10227 0.33268,-3.40079 0.0729,-4.51373 -0.39614,-1.69698 -1.0917,-2.87593 -3.13406,-5.31215 -1.98271,-2.36508 -2.8874,-3.1851 -4.28526,-3.88421 -1.38508,-0.692721 -2.46669,-0.933281 -4.19624,-0.933281 -2.22905,0 -4.00139,0.57237 -5.57821,1.801461 -1.87573,1.46209 -9.46499,7.9941 -10.07056,8.66763 -0.79264,0.88161 -1.63212,2.52378 -1.94578,3.8063 -0.11306,0.4623 -0.19829,1.52828 -0.18938,2.36883 0.0192,1.814 0.49216,3.48958 1.35246,4.79161 0.67774,1.02573 3.5206,4.37706 4.27437,5.03888 1.20697,1.05973 2.9008,1.89104 4.40118,2.16003 1.1906,0.21346 3.40109,0.0757 4.54887,-0.28341 z m -13.45118,-21.95753 c 1.94299,-0.57266 2.62827,-1.09145 12.84502,-9.724501 5.46473,-4.61764 10.2098,-8.74226 10.5446,-9.16581 0.73544,-0.93039 1.56836,-2.64771 1.83999,-3.79366 0.25543,-1.07762 0.25597,-3.35083 0.001,-4.43201 -0.37238,-1.57934 -1.28366,-3.17611 -2.92188,-5.11973 -2.84413,-3.37434 -3.71009,-4.0839 -5.94946,-4.87495 -1.16807,-0.41261 -1.49922,-0.46193 -3.13973,-0.46764 -2.11883,-0.007 -3.41368,0.32532 -4.96759,1.27635 -1.13973,0.69755 -19.98302,16.63776 -20.87999,17.66314 -1.51626,1.73331 -2.24991,3.81566 -2.2362,6.34713 0.0107,1.97571 0.48713,3.62985 1.46586,5.0894 0.96332,1.43657 3.86297,4.789851 4.74424,5.486461 1.30635,1.0326 2.92403,1.71603 4.75697,2.00969 0.80756,0.12939 3.02952,-0.0382 3.89711,-0.29387 z M 139.93113,84.750299 c 2.17714,-0.5116 2.5179,-0.76341 12.92278,-9.54966 5.37468,-4.53857 10.101,-8.61167 10.50293,-9.05135 0.40193,-0.43968 1.00493,-1.34959 1.33999,-2.02203 1.40349,-2.81664 1.40376,-5.892 5.8e-4,-8.71119 -0.65714,-1.32047 -3.64998,-5.0089 -5.00529,-6.1686 -0.90262,-0.77236 -2.56951,-1.62238 -3.78458,-1.92995 -1.19235,-0.30181 -3.65295,-0.29684 -4.87389,0.01 -2.02077,0.5076 -2.78522,1.07899 -12.92058,9.65747 -5.28974,4.4772 -9.96316,8.51833 -10.38536,8.98029 -2.6924,2.9459 -3.09283,8.13084 -0.88478,11.4564 0.78045,1.17546 3.77378,4.66816 4.62954,5.40191 0.91086,0.78098 2.57886,1.62314 3.79909,1.91812 1.21527,0.29379 3.42867,0.29794 4.65938,0.009 z M 32.376749,64.929599 c 4.086911,-7.9081 9.716688,-15.69679 15.971551,-22.09635 l 1.991634,-2.03771 -0.70888,-0.30586 c -9.478294,-4.08955 -16.950126,-6.06734 -21.603858,-5.71852 -5.444715,0.40811 -7.986934,2.95083 -7.958619,7.96021 0.02495,4.41876 2.408506,10.73208 6.923829,18.33933 1.24458,2.09682 3.957392,6.34235 4.052641,6.34235 0.02651,0 0.625802,-1.11755 1.331702,-2.48345 z"
       id="path1" /></g></svg>
