<?xml version="1.0" encoding="UTF-8" standalone="no"?>
<!-- Created with Inkscape (http://www.inkscape.org/) -->

<svg
   width="210mm"
   height="297mm"
   viewBox="0 0 210 297"
   version="1.1"
   id="svg1"
   xml:space="preserve"
   inkscape:version="1.3.2 (091e20ef0f, 2023-11-25, custom)"
   sodipodi:docname="macpro-prices.svg"
   xmlns:inkscape="http://www.inkscape.org/namespaces/inkscape"
   xmlns:sodipodi="http://sodipodi.sourceforge.net/DTD/sodipodi-0.dtd"
   xmlns="http://www.w3.org/2000/svg"
   xmlns:svg="http://www.w3.org/2000/svg"><sodipodi:namedview
     id="namedview1"
     pagecolor="#ffffff"
     bordercolor="#000000"
     borderopacity="0.25"
     inkscape:showpageshadow="2"
     inkscape:pageopacity="0.0"
     inkscape:pagecheckerboard="0"
     inkscape:deskcolor="#d1d1d1"
     inkscape:document-units="mm"
     inkscape:zoom="0.84036706"
     inkscape:cx="396.85039"
     inkscape:cy="561.65933"
     inkscape:window-width="3820"
     inkscape:window-height="2102"
     inkscape:window-x="0"
     inkscape:window-y="0"
     inkscape:window-maximized="1"
     inkscape:current-layer="layer1" /><defs
     id="defs1" /><g
     inkscape:label="Layer 1"
     inkscape:groupmode="layer"
     id="layer1"><path
       style="fill:#000000"
       d="m 2.9648337,342.80373 c -0.0709,-0.19165 -0.10003,-0.94377 -0.0646,-1.67137 0.0587,-1.20615 0.12473,-1.32993 0.74845,-1.40244 0.81245,-0.0944 1.54217,0.60492 1.09635,1.05073 -0.20671,0.20671 -0.20039,0.42653 0.0225,0.78345 0.22657,0.36279 0.23208,0.62033 0.0205,0.95824 -0.35509,0.56712 -1.64377,0.76602 -1.82317,0.28139 z m 1.41358,-0.59692 c 0.14696,-0.75807 -0.41481,-1.12857 -0.93002,-0.61337 -0.36641,0.36642 -0.3813,0.5072 -0.0907,0.85737 0.42148,0.50784 0.897,0.39417 1.02071,-0.244 z m -0.091,-1.73591 c 0,-0.21429 -0.20836,-0.42975 -0.46302,-0.4788 -0.32487,-0.0626 -0.46302,0.0803 -0.46302,0.4788 0,0.3985 0.13815,0.54136 0.46302,0.4788 0.25466,-0.049 0.46302,-0.2645 0.46302,-0.4788 z m 1.62851,2.16198 c -0.55396,-0.61211 -0.56601,-1.99606 -0.0221,-2.53995 0.54318,-0.54318 1.80386,-0.53244 2.26173,0.0193 0.32318,0.38941 0.29189,0.41397 -0.29833,0.23411 -0.36266,-0.11051 -0.71892,-0.20132 -0.79168,-0.20179 -0.57137,-0.004 -0.81319,0.13293 -1.06368,0.60097 -0.5989,1.11906 0.5219,2.41524 1.59285,1.84209 0.69784,-0.37347 0.67081,-0.72967 -0.0661,-0.87161 -0.51042,-0.0983 -0.49156,-0.1198 0.13229,-0.15069 0.60109,-0.0298 0.7276,0.0741 0.7276,0.59712 0,1.02381 -1.68211,1.34389 -2.47253,0.47049 z m 3.26628,-1.23594 v -1.71979 l 0.8599003,0.004 c 1.17225,0.006 1.63105,0.34163 1.4438,1.05769 -0.0844,0.32271 -0.0193,0.80147 0.14458,1.06393 0.45373,0.72654 -0.18211,1.31392 -1.42234,1.31392 H 9.1822037 Z m 1.6981503,1.29461 c 0.86291,-0.33112 0.29529,-1.16231 -0.79375,-1.16231 -0.2238603,0 -0.3752303,0.26683 -0.3752303,0.66145 0,0.66641 0.3484803,0.81572 1.1689803,0.50086 z m 0.0685,-1.85048 c 0.16451,-0.42868 -0.30055,-0.88786 -0.90675,-0.89528 -0.1819003,-0.002 -0.3307303,0.2936 -0.3307303,0.6574 0,0.48848 0.14056,0.66146 0.5374703,0.66146 0.29561,0 0.61061,-0.19061 0.70001,-0.42358 z m 2.46669,2.1923 c 0,-0.53705 0.90881,-3.35622 1.08194,-3.35622 0.23455,0 -0.52657,2.92165 -0.85815,3.29406 -0.12309,0.13825 -0.22379,0.16622 -0.22379,0.0622 z m 3.09895,-0.0809 c -0.37456,-0.37455 -0.17768,-0.64231 0.28874,-0.39269 0.61726,0.33035 1.19059,-0.0293 1.06071,-0.66539 -0.0745,-0.36494 -0.29292,-0.47718 -0.81979,-0.42131 -0.66022,0.07 -0.7182,6.1e-4 -0.7182,-0.85989 0,-0.91232 0.0252,-0.93505 0.99219,-0.89641 0.7981,0.0319 0.84986,0.0612 0.26458,0.14986 -0.90073,0.13645 -1.02429,1.05247 -0.15931,1.18115 0.79066,0.11763 1.23286,0.87633 0.85888,1.47361 -0.30158,0.48165 -1.4397,0.75918 -1.7678,0.43107 z m 2.78803,-0.0181 c 0.36143,-0.0944 0.46302,-0.40516 0.46302,-1.41621 0,-1.11261 -0.0653,-1.27469 -0.46302,-1.14963 -0.39535,0.12431 -0.38796,0.0844 0.0506,-0.27288 0.81768,-0.66625 0.94161,-0.51494 0.94161,1.14962 0,1.27095 0.0877,1.59103 0.46302,1.6891 0.25467,0.0666 -0.0728,0.121 -0.7276,0.121 -0.65484,0 -0.98227,-0.0544 -0.7276,-0.121 z m 2.3151,-0.16499 c 0,-0.19105 0.35719,-0.68958 0.79375,-1.10783 0.43656,-0.41826 0.79375,-0.90404 0.79375,-1.07953 0,-0.45238 -0.6737,-0.65448 -1.02168,-0.3065 -0.16083,0.16083 -0.38025,0.20458 -0.4876,0.0972 -0.27371,-0.27371 0.48093,-0.71239 1.08538,-0.63095 0.27618,0.0372 0.63047,0.2724 0.78732,0.52263 0.23045,0.36767 0.12142,0.62391 -0.56829,1.33551 -0.46941,0.4843 -0.85346,0.95663 -0.85346,1.04963 0,0.093 0.38695,0.2171 0.85989,0.27579 0.7454,0.0925 0.71017,0.11235 -0.26458,0.14905 -0.77343,0.0291 -1.12448,-0.0661 -1.12448,-0.30503 z m 247.130146,-0.1644 c -0.89109,-1.665 0.47657,-3.8583 1.57819,-2.53093 0.2077,0.25026 0.22544,0.39687 0.048,0.39687 -0.15475,0 -0.35174,-0.11386 -0.43775,-0.25303 -0.23652,-0.3827 -0.93318,-0.0167 -0.93318,0.49021 0,0.31175 0.21804,0.44202 0.72761,0.43471 0.56215,-0.008 0.74726,0.12825 0.81406,0.59945 0.17317,1.22158 -1.24142,1.90073 -1.79694,0.86272 z m 1.26865,-0.71689 c -0.12333,-0.64037 -0.84601,-0.63565 -0.96964,0.006 -0.10699,0.55552 0.4889,1.06011 0.83876,0.71025 0.124,-0.12401 0.1829,-0.44647 0.13088,-0.71659 z m 2.4262,0.84855 c 0,-0.22628 -0.31737,-0.41366 -0.78426,-0.46302 l -0.78426,-0.0829 0.78475,-1.25677 c 0.43161,-0.69122 0.90359,-1.25677 1.04884,-1.25677 0.14526,0 0.2641,0.52586 0.2641,1.16858 0,0.6873 0.13621,1.22354 0.33073,1.30203 0.26458,0.10676 0.26458,0.13763 0,0.15434 -0.1819,0.0115 -0.33073,0.19948 -0.33073,0.41776 0,0.21828 -0.11906,0.39688 -0.26458,0.39688 -0.14552,0 -0.26459,-0.17105 -0.26459,-0.38012 z m 0,-1.51606 c 0,-0.46082 -0.036,-0.78824 -0.0801,-0.72761 -0.044,0.0606 -0.28492,0.43767 -0.53527,0.83785 -0.44041,0.70398 -0.43781,0.7276 0.0801,0.7276 0.42461,0 0.53526,-0.1732 0.53526,-0.83784 z m 1.7608,1.41232 c -0.5812,-0.64222 -0.55691,-1.97224 0.046,-2.51785 0.58265,-0.52729 1.72081,-0.57258 2.1258,-0.0846 0.23707,0.28565 0.0787,0.34897 -0.8275,0.33073 -1.10921,-0.0223 -1.12154,-0.0124 -1.20297,0.97219 -0.0688,0.83226 0.016,1.0311 0.5193,1.21728 0.75194,0.27816 1.54734,0.0867 1.54734,-0.3724 0,-0.19119 -0.26789,-0.39921 -0.59531,-0.46228 -0.4305,-0.0829 -0.35725,-0.12464 0.26459,-0.15069 0.6906,-0.0289 0.85989,0.0663 0.85989,0.48382 0,1.03343 -1.95319,1.45001 -2.73712,0.58379 z m 3.26629,-1.25115 v -1.735 l 1.12448,0.0814 c 1.04646,0.0757 1.12671,0.13642 1.15668,0.8751 0.0177,0.43657 0.12033,1.00363 0.22804,1.26014 0.30145,0.71794 -0.33222,1.25341 -1.48327,1.25341 h -1.02593 z m 1.82449,1.22849 c 0.55751,-0.35301 0.13624,-1.08098 -0.62556,-1.08098 -0.47308,0 -0.66977,0.14244 -0.66977,0.48507 0,0.81998 0.54529,1.07084 1.29533,0.59591 z m 0.12172,-1.73841 c 0.16705,-0.43532 -0.73624,-1.05502 -1.15793,-0.7944 -0.14251,0.0881 -0.25912,0.39124 -0.25912,0.67369 0,0.62617 1.18438,0.72706 1.41705,0.12071 z m 2.35342,1.9142 c 0.0676,-0.1819 0.28144,-0.95581 0.4752,-1.7198 0.19376,-0.76398 0.46158,-1.38906 0.59516,-1.38906 0.13358,0 0.18756,0.14883 0.11996,0.33073 -0.0676,0.1819 -0.28144,0.95581 -0.4752,1.71979 -0.19376,0.76399 -0.46158,1.38907 -0.59516,1.38907 -0.13358,0 -0.18756,-0.14883 -0.11996,-0.33073 z m 4.16703,-0.0661 c 0,-0.26697 -0.26703,-0.39687 -0.81579,-0.39687 -0.44869,0 -0.77611,-0.0893 -0.72761,-0.19844 0.42126,-0.94782 1.47117,-2.44372 1.71631,-2.44536 0.29751,-0.002 0.58003,2.10303 0.40301,3.00276 -0.10707,0.54415 -0.57592,0.57501 -0.57592,0.0379 z m -0.004,-1.52135 c -0.004,-0.88133 -0.10442,-0.83207 -0.80786,0.39687 -0.21529,0.37612 -0.16397,0.46302 0.27344,0.46302 0.43195,0 0.53767,-0.1701 0.53442,-0.85989 z m 2.12072,0.34913 c 0,-1.41685 -0.0578,-1.58023 -0.59531,-1.68376 -0.32742,-0.0631 0.0595,-0.12333 0.85989,-0.13393 1.11712,-0.0148 1.3169,0.0363 0.8599,0.22003 -0.51679,0.20772 -0.59531,0.43236 -0.59531,1.70302 0,0.80506 -0.11906,1.46374 -0.26459,1.46374 -0.14664,0 -0.26458,-0.69943 -0.26458,-1.5691 z m 2.11667,-0.1507 v -1.71979 l 0.85989,0.004 c 1.17226,0.006 1.63106,0.34163 1.44381,1.05769 -0.0844,0.32271 -0.0193,0.80147 0.14457,1.06393 0.45374,0.72654 -0.1821,1.31392 -1.42234,1.31392 h -1.02593 z m 1.69815,1.29461 c 0.8629,-0.33112 0.29528,-1.16231 -0.79375,-1.16231 -0.22386,0 -0.37523,0.26683 -0.37523,0.66145 0,0.66641 0.34848,0.81572 1.16898,0.50086 z m 0.0685,-1.85048 c 0.1645,-0.42868 -0.30055,-0.88786 -0.90676,-0.89528 -0.1819,-0.002 -0.33072,0.2936 -0.33072,0.6574 0,0.48848 0.14055,0.66146 0.53747,0.66146 0.2956,0 0.61061,-0.19061 0.70001,-0.42358 z m -470.32751,-2.86416 c -0.46092,-0.55538 -0.2446,-2.55128 0.3145,-2.90167 0.75768,-0.47483 1.37629,0.11683 1.47138,1.40727 0.0888,1.20569 -0.26997,1.87173 -1.00835,1.87173 -0.25541,0 -0.60529,-0.1698 -0.77753,-0.37733 z m 1.35969,-0.55938 c 0.36543,-0.80202 0.005,-2.106 -0.58216,-2.106 -0.58714,0 -0.9476,1.30398 -0.58217,2.106 0.16843,0.36967 0.4304,0.67212 0.58217,0.67212 0.15176,0 0.41373,-0.30245 0.58216,-0.67212 z m 2.60906,0.55938 c -0.46092,-0.55538 -0.2446,-2.55128 0.3145,-2.90167 0.75768,-0.47483 1.37629,0.11683 1.47138,1.40727 0.0888,1.20569 -0.26997,1.87173 -1.00835,1.87173 -0.25541,0 -0.60529,-0.1698 -0.77753,-0.37733 z m 1.35969,-0.55938 c 0.36543,-0.80202 0.005,-2.106 -0.58216,-2.106 -0.58714,0 -0.9476,1.30398 -0.58217,2.106 0.16843,0.36967 0.4304,0.67212 0.58217,0.67212 0.15176,0 0.41373,-0.30245 0.58216,-0.67212 z m 1.28615,0.55938 c -0.46093,-0.55538 -0.2446,-2.55128 0.3145,-2.90167 0.75767,-0.47483 1.37629,0.11683 1.47137,1.40727 0.0889,1.20569 -0.26997,1.87173 -1.00835,1.87173 -0.25541,0 -0.60529,-0.1698 -0.77752,-0.37733 z m 1.35968,-0.55938 c 0.36543,-0.80202 0.005,-2.106 -0.58216,-2.106 -0.58713,0 -0.94759,1.30398 -0.58217,2.106 0.16843,0.36967 0.43041,0.67212 0.58217,0.67212 0.15176,0 0.41373,-0.30245 0.58216,-0.67212 z m 49.75481,-0.32006 46.765104,-0.0676 v -59.87447 c 0,-46.21626 0.0724,-59.9469 0.3175,-60.19198 0.46261,-0.4626 172.733645,-0.4626 173.196255,0 0.24507,0.24508 0.3175,13.97588 0.3175,60.19271 v 59.87521 h 46.831291 46.83125 l 0.004,-183.81927 c 0.002,-101.100591 0.0987,-183.96827 0.2143,-184.150391 0.16778,-0.264237 17.71174,-0.317687 86.84543,-0.264584 l 86.63518,0.06655 0.0663,184.083125 0.0663,184.08312 47.0295,0.0676 c 25.86622,0.0372 -94.47628,0.0676 -267.4278,0.0676 -172.951506,0 -293.413,-0.0304 -267.69219,-0.0676 z m -64.31811,-73.8849 c 0,-0.3638 0.06,-0.51263 0.13345,-0.33073 0.0734,0.1819 0.0734,0.47956 0,0.66146 -0.0734,0.1819 -0.13345,0.0331 -0.13345,-0.33073 z m -2.62147,-0.18238 c 0.36288,-0.0948 0.46303,-0.4063 0.46303,-1.44014 0,-0.98488 -0.0838,-1.26878 -0.33073,-1.12043 -0.22473,0.13501 -0.21435,0.0552 0.0324,-0.24897 0.61612,-0.75955 0.8275,-0.50553 0.8275,0.9944 0,1.09426 0.11167,1.5071 0.46302,1.71174 0.36109,0.21032 0.20091,0.2647 -0.7276,0.24704 -0.65485,-0.0125 -0.98227,-0.0771 -0.72761,-0.14364 z m 3.91884,-0.19494 c -0.46093,-0.55538 -0.2446,-2.55128 0.3145,-2.90167 0.75767,-0.47484 1.37629,0.11682 1.47137,1.40726 0.0889,1.20569 -0.26997,1.87173 -1.00835,1.87173 -0.25541,0 -0.60529,-0.16979 -0.77752,-0.37732 z m 1.35968,-0.55938 c 0.36543,-0.80203 0.005,-2.10601 -0.58216,-2.10601 -0.58713,0 -0.94759,1.30398 -0.58217,2.10601 0.16843,0.36966 0.43041,0.67212 0.58217,0.67212 0.15176,0 0.41373,-0.30246 0.58216,-0.67212 z m 1.28615,0.55938 c -0.46093,-0.55538 -0.2446,-2.55128 0.3145,-2.90167 0.75768,-0.47484 1.37629,0.11682 1.47138,1.40726 0.0888,1.20569 -0.26997,1.87173 -1.00836,1.87173 -0.2554,0 -0.60529,-0.16979 -0.77752,-0.37732 z m 1.35969,-0.55938 c 0.36542,-0.80203 0.005,-2.10601 -0.58217,-2.10601 -0.58713,0 -0.94759,1.30398 -0.58216,2.10601 0.16843,0.36966 0.4304,0.67212 0.58216,0.67212 0.15176,0 0.41374,-0.30246 0.58217,-0.67212 z m 1.28614,0.55938 c -0.46092,-0.55538 -0.2446,-2.55128 0.3145,-2.90167 0.75768,-0.47484 1.37629,0.11682 1.47138,1.40726 0.0888,1.20569 -0.26997,1.87173 -1.00835,1.87173 -0.25541,0 -0.60529,-0.16979 -0.77753,-0.37732 z m 1.35969,-0.55938 c 0.36543,-0.80203 0.005,-2.10601 -0.58216,-2.10601 -0.58714,0 -0.9476,1.30398 -0.58217,2.10601 0.16843,0.36966 0.4304,0.67212 0.58217,0.67212 0.15176,0 0.41373,-0.30246 0.58216,-0.67212 z m 2.60906,0.55938 c -0.46092,-0.55538 -0.2446,-2.55128 0.3145,-2.90167 0.75768,-0.47484 1.37629,0.11682 1.47138,1.40726 0.0888,1.20569 -0.26997,1.87173 -1.00835,1.87173 -0.25541,0 -0.60529,-0.16979 -0.77753,-0.37732 z m 1.35969,-0.55938 c 0.36543,-0.80203 0.005,-2.10601 -0.58216,-2.10601 -0.58714,0 -0.9476,1.30398 -0.58217,2.10601 0.16843,0.36966 0.4304,0.67212 0.58217,0.67212 0.15176,0 0.41373,-0.30246 0.58216,-0.67212 z m 1.28615,0.55938 c -0.46093,-0.55538 -0.2446,-2.55128 0.3145,-2.90167 0.75767,-0.47484 1.37629,0.11682 1.47137,1.40726 0.0889,1.20569 -0.26997,1.87173 -1.00835,1.87173 -0.25541,0 -0.60529,-0.16979 -0.77752,-0.37732 z m 1.35968,-0.55938 c 0.36543,-0.80203 0.005,-2.10601 -0.58216,-2.10601 -0.58713,0 -0.94759,1.30398 -0.58217,2.10601 0.16843,0.36966 0.43041,0.67212 0.58217,0.67212 0.15176,0 0.41373,-0.30246 0.58216,-0.67212 z m -14.5633,-74.20497 c 0,-0.3638 0.06,-0.51263 0.13345,-0.33073 0.0734,0.18191 0.0734,0.47956 0,0.66146 -0.0734,0.1819 -0.13345,0.0331 -0.13345,-0.33073 z m -2.95219,-0.26699 c 0,-0.14684 0.35718,-0.64075 0.79375,-1.09757 0.43656,-0.45682 0.79375,-0.98449 0.79375,-1.1726 0,-0.49946 -0.52845,-0.74439 -0.86973,-0.40312 -0.44237,0.44238 -0.83222,0.35427 -0.45319,-0.10242 0.70367,-0.84788 2.06138,-0.1502 1.73133,0.88967 -0.0905,0.28501 -0.45748,0.71018 -0.81561,0.94484 -0.88234,0.57813 -0.81845,0.88932 0.20876,1.0168 0.7454,0.0925 0.71017,0.11235 -0.26459,0.14905 -0.61846,0.0233 -1.12447,-0.0778 -1.12447,-0.22465 z m 4.24956,-0.11033 c -0.46093,-0.55538 -0.2446,-2.55128 0.3145,-2.90167 0.75767,-0.47483 1.37629,0.11682 1.47137,1.40727 0.0889,1.20569 -0.26997,1.87172 -1.00835,1.87172 -0.25541,0 -0.60529,-0.16979 -0.77752,-0.37732 z m 1.35968,-0.55938 c 0.36543,-0.80202 0.005,-2.106 -0.58216,-2.106 -0.58713,0 -0.94759,1.30398 -0.58217,2.106 0.16843,0.36967 0.43041,0.67212 0.58217,0.67212 0.15176,0 0.41373,-0.30245 0.58216,-0.67212 z m 1.28615,0.55938 c -0.46093,-0.55538 -0.2446,-2.55128 0.3145,-2.90167 0.75768,-0.47483 1.37629,0.11682 1.47138,1.40727 0.0888,1.20569 -0.26997,1.87172 -1.00836,1.87172 -0.2554,0 -0.60529,-0.16979 -0.77752,-0.37732 z m 1.35969,-0.55938 c 0.36542,-0.80202 0.005,-2.106 -0.58217,-2.106 -0.58713,0 -0.94759,1.30398 -0.58216,2.106 0.16843,0.36967 0.4304,0.67212 0.58216,0.67212 0.15176,0 0.41374,-0.30245 0.58217,-0.67212 z m 1.28614,0.55938 c -0.46092,-0.55538 -0.2446,-2.55128 0.3145,-2.90167 0.75768,-0.47483 1.37629,0.11682 1.47138,1.40727 0.0888,1.20569 -0.26997,1.87172 -1.00835,1.87172 -0.25541,0 -0.60529,-0.16979 -0.77753,-0.37732 z m 1.35969,-0.55938 c 0.36543,-0.80202 0.005,-2.106 -0.58216,-2.106 -0.58714,0 -0.9476,1.30398 -0.58217,2.106 0.16843,0.36967 0.4304,0.67212 0.58217,0.67212 0.15176,0 0.41373,-0.30245 0.58216,-0.67212 z m 2.60906,0.55938 c -0.46092,-0.55538 -0.2446,-2.55128 0.3145,-2.90167 0.75768,-0.47483 1.37629,0.11682 1.47138,1.40727 0.0888,1.20569 -0.26997,1.87172 -1.00835,1.87172 -0.25541,0 -0.60529,-0.16979 -0.77753,-0.37732 z m 1.35969,-0.55938 c 0.36543,-0.80202 0.005,-2.106 -0.58216,-2.106 -0.58714,0 -0.9476,1.30398 -0.58217,2.106 0.16843,0.36967 0.4304,0.67212 0.58217,0.67212 0.15176,0 0.41373,-0.30245 0.58216,-0.67212 z m 1.28615,0.55938 c -0.46093,-0.55538 -0.2446,-2.55128 0.3145,-2.90167 0.75767,-0.47483 1.37629,0.11682 1.47137,1.40727 0.0889,1.20569 -0.26997,1.87172 -1.00835,1.87172 -0.25541,0 -0.60529,-0.16979 -0.77752,-0.37732 z m 1.35968,-0.55938 c 0.36543,-0.80202 0.005,-2.106 -0.58216,-2.106 -0.58713,0 -0.94759,1.30398 -0.58217,2.106 0.16843,0.36967 0.43041,0.67212 0.58217,0.67212 0.15176,0 0.41373,-0.30245 0.58216,-0.67212 z m -14.5633,-74.20496 c 0,-0.3638 0.06,-0.51263 0.13345,-0.33073 0.0734,0.1819 0.0734,0.47956 0,0.66146 -0.0734,0.1819 -0.13345,0.0331 -0.13345,-0.33073 z m -2.67995,-0.25425 c -0.21407,-0.13538 -0.30624,-0.32912 -0.20483,-0.43053 0.10141,-0.10141 0.36064,-0.0381 0.57606,0.14069 0.21542,0.17878 0.51596,0.24825 0.66785,0.15438 0.41377,-0.25573 0.33281,-0.87522 -0.14966,-1.14522 -0.39139,-0.21904 -0.39139,-0.25153 0,-0.40172 0.48528,-0.18622 0.56776,-0.85483 0.1382,-1.12031 -0.1582,-0.0978 -0.42014,-0.0453 -0.58209,0.11668 -0.44237,0.44238 -0.83222,0.35427 -0.45319,-0.10243 0.74797,-0.90125 2.25453,-0.0437 1.64314,0.93526 -0.19606,0.31395 -0.21446,0.55408 -0.0502,0.65559 0.40856,0.25251 0.30223,1.11413 -0.15935,1.29126 -0.57654,0.22124 -0.96873,0.19548 -1.42591,-0.0936 z m 3.97732,-0.12307 c -0.46093,-0.55539 -0.2446,-2.55128 0.3145,-2.90167 0.75767,-0.47484 1.37629,0.11682 1.47137,1.40726 0.0889,1.20569 -0.26997,1.87173 -1.00835,1.87173 -0.25541,0 -0.60529,-0.1698 -0.77752,-0.37732 z m 1.35968,-0.55938 c 0.36543,-0.80203 0.005,-2.10601 -0.58216,-2.10601 -0.58713,0 -0.94759,1.30398 -0.58217,2.10601 0.16843,0.36966 0.43041,0.67211 0.58217,0.67211 0.15176,0 0.41373,-0.30245 0.58216,-0.67211 z m 1.28615,0.55938 c -0.46093,-0.55539 -0.2446,-2.55128 0.3145,-2.90167 0.75768,-0.47484 1.37629,0.11682 1.47138,1.40726 0.0888,1.20569 -0.26997,1.87173 -1.00836,1.87173 -0.2554,0 -0.60529,-0.1698 -0.77752,-0.37732 z m 1.35969,-0.55938 c 0.36542,-0.80203 0.005,-2.10601 -0.58217,-2.10601 -0.58713,0 -0.94759,1.30398 -0.58216,2.10601 0.16843,0.36966 0.4304,0.67211 0.58216,0.67211 0.15176,0 0.41374,-0.30245 0.58217,-0.67211 z m 1.28614,0.55938 c -0.46092,-0.55539 -0.2446,-2.55128 0.3145,-2.90167 0.75768,-0.47484 1.37629,0.11682 1.47138,1.40726 0.0888,1.20569 -0.26997,1.87173 -1.00835,1.87173 -0.25541,0 -0.60529,-0.1698 -0.77753,-0.37732 z m 1.35969,-0.55938 c 0.36543,-0.80203 0.005,-2.10601 -0.58216,-2.10601 -0.58714,0 -0.9476,1.30398 -0.58217,2.10601 0.16843,0.36966 0.4304,0.67211 0.58217,0.67211 0.15176,0 0.41373,-0.30245 0.58216,-0.67211 z m 2.60906,0.55938 c -0.46092,-0.55539 -0.2446,-2.55128 0.3145,-2.90167 0.75768,-0.47484 1.37629,0.11682 1.47138,1.40726 0.0888,1.20569 -0.26997,1.87173 -1.00835,1.87173 -0.25541,0 -0.60529,-0.1698 -0.77753,-0.37732 z m 1.35969,-0.55938 c 0.36543,-0.80203 0.005,-2.10601 -0.58216,-2.10601 -0.58714,0 -0.9476,1.30398 -0.58217,2.10601 0.16843,0.36966 0.4304,0.67211 0.58217,0.67211 0.15176,0 0.41373,-0.30245 0.58216,-0.67211 z m 1.28615,0.55938 c -0.46093,-0.55539 -0.2446,-2.55128 0.3145,-2.90167 0.75767,-0.47484 1.37629,0.11682 1.47137,1.40726 0.0889,1.20569 -0.26997,1.87173 -1.00835,1.87173 -0.25541,0 -0.60529,-0.1698 -0.77752,-0.37732 z m 1.35968,-0.55938 c 0.36543,-0.80203 0.005,-2.10601 -0.58216,-2.10601 -0.58713,0 -0.94759,1.30398 -0.58217,2.10601 0.16843,0.36966 0.43041,0.67211 0.58217,0.67211 0.15176,0 0.41373,-0.30245 0.58216,-0.67211 z m -14.5633,-74.469544 c 0,-0.363802 0.06,-0.51263 0.13345,-0.330729 0.0734,0.181901 0.0734,0.479557 0,0.661458 -0.0734,0.181901 -0.13345,0.03307 -0.13345,-0.330729 z m -1.62928,-0.380112 c 0,-0.226287 -0.31737,-0.413663 -0.78426,-0.46302 l -0.78426,-0.08291 0.78475,-1.256771 c 0.43161,-0.691224 0.90359,-1.256771 1.04884,-1.256771 0.14525,0 0.2641,0.52586 0.2641,1.168577 0,0.687298 0.13621,1.223538 0.33073,1.302028 0.26458,0.106762 0.26458,0.13763 0,0.154341 -0.1819,0.01149 -0.33073,0.199481 -0.33073,0.417763 0,0.218281 -0.11906,0.396875 -0.26458,0.396875 -0.14553,0 -0.26459,-0.17105 -0.26459,-0.380112 z m 0,-1.516069 c 0,-0.460816 -0.036,-0.788238 -0.0801,-0.727604 -0.044,0.06063 -0.28491,0.437665 -0.53526,0.837847 -0.44041,0.703979 -0.43781,0.727604 0.0801,0.727604 0.42461,0 0.53526,-0.173206 0.53526,-0.837847 z m 2.92665,1.51886 c -0.46093,-0.555384 -0.2446,-2.551281 0.3145,-2.901671 0.75767,-0.474837 1.37629,0.116821 1.47137,1.407263 0.0889,1.205693 -0.26997,1.871729 -1.00835,1.871729 -0.25541,0 -0.60529,-0.169795 -0.77752,-0.377321 z m 1.35968,-0.559381 c 0.36543,-0.802025 0.005,-2.106007 -0.58216,-2.106007 -0.58713,0 -0.94759,1.303982 -0.58217,2.106007 0.16843,0.369665 0.43041,0.672118 0.58217,0.672118 0.15176,0 0.41373,-0.302453 0.58216,-0.672118 z m 1.28615,0.559381 c -0.46093,-0.555384 -0.2446,-2.551281 0.3145,-2.901671 0.75768,-0.474837 1.37629,0.116821 1.47138,1.407263 0.0888,1.205693 -0.26997,1.871729 -1.00836,1.871729 -0.2554,0 -0.60529,-0.169795 -0.77752,-0.377321 z m 1.35969,-0.559381 c 0.36542,-0.802025 0.005,-2.106007 -0.58217,-2.106007 -0.58713,0 -0.94759,1.303982 -0.58216,2.106007 0.16843,0.369665 0.4304,0.672118 0.58216,0.672118 0.15176,0 0.41374,-0.302453 0.58217,-0.672118 z m 1.28614,0.559381 c -0.46092,-0.555384 -0.2446,-2.551281 0.3145,-2.901671 0.75768,-0.474837 1.37629,0.116821 1.47138,1.407263 0.0888,1.205693 -0.26997,1.871729 -1.00835,1.871729 -0.25541,0 -0.60529,-0.169795 -0.77753,-0.377321 z m 1.35969,-0.559381 c 0.36543,-0.802025 0.005,-2.106007 -0.58216,-2.106007 -0.58714,0 -0.9476,1.303982 -0.58217,2.106007 0.16843,0.369665 0.4304,0.672118 0.58217,0.672118 0.15176,0 0.41373,-0.302453 0.58216,-0.672118 z m 2.60906,0.559381 c -0.46092,-0.555384 -0.2446,-2.551281 0.3145,-2.901671 0.75768,-0.474837 1.37629,0.116821 1.47138,1.407263 0.0888,1.205693 -0.26997,1.871729 -1.00835,1.871729 -0.25541,0 -0.60529,-0.169795 -0.77753,-0.377321 z m 1.35969,-0.559381 c 0.36543,-0.802025 0.005,-2.106007 -0.58216,-2.106007 -0.58714,0 -0.9476,1.303982 -0.58217,2.106007 0.16843,0.369665 0.4304,0.672118 0.58217,0.672118 0.15176,0 0.41373,-0.302453 0.58216,-0.672118 z m 1.28615,0.559381 c -0.46093,-0.555384 -0.2446,-2.551281 0.3145,-2.901671 0.75767,-0.474837 1.37629,0.116821 1.47137,1.407263 0.0889,1.205693 -0.26997,1.871729 -1.00835,1.871729 -0.25541,0 -0.60529,-0.169795 -0.77752,-0.377321 z m 1.35968,-0.559381 c 0.36543,-0.802025 0.005,-2.106007 -0.58216,-2.106007 -0.58713,0 -0.94759,1.303982 -0.58217,2.106007 0.16843,0.369665 0.43041,0.672118 0.58217,0.672118 0.15176,0 0.41373,-0.302453 0.58216,-0.672118 z m -14.5633,-74.204964 c 0,-0.363802 0.06,-0.51263 0.13345,-0.330729 0.0734,0.181901 0.0734,0.479557 0,0.661458 -0.0734,0.181901 -0.13345,0.03307 -0.13345,-0.330729 z m -2.83078,-0.282187 c -0.27971,-0.452569 0.0924,-0.618502 0.54486,-0.24298 0.51204,0.424955 1.0176,0.01638 0.87049,-0.7035 -0.0732,-0.358306 -0.29459,-0.470528 -0.81856,-0.414965 -0.66023,0.07001 -0.7182,6.01e-4 -0.7182,-0.859896 0,-0.931495 0.005,-0.935849 1.12447,-0.893712 0.97476,0.0367 1.00999,0.05655 0.26459,0.149055 -1.12838,0.14003 -1.2308,1.053692 -0.13229,1.18009 1.34258,0.154481 1.02103,2.068095 -0.34752,2.068095 -0.33739,0 -0.69192,-0.126984 -0.78784,-0.282187 z m 4.12815,-0.09513 c -0.46093,-0.555384 -0.2446,-2.551281 0.3145,-2.901671 0.75767,-0.474837 1.37629,0.116821 1.47137,1.407263 0.0453,0.614398 -0.0586,1.286881 -0.23083,1.494408 -0.40151,0.483794 -1.15353,0.483794 -1.55504,0 z m 1.35968,-0.559381 c 0.36543,-0.802025 0.005,-2.106007 -0.58216,-2.106007 -0.58713,0 -0.94759,1.303982 -0.58217,2.106007 0.16843,0.369665 0.43041,0.672118 0.58217,0.672118 0.15176,0 0.41373,-0.302453 0.58216,-0.672118 z m 1.28615,0.559381 c -0.46093,-0.555384 -0.2446,-2.551281 0.3145,-2.901671 0.75768,-0.474837 1.37629,0.116821 1.47138,1.407263 0.0453,0.614398 -0.0586,1.286881 -0.23084,1.494408 -0.40151,0.483794 -1.15353,0.483794 -1.55504,0 z m 1.35969,-0.559381 c 0.36542,-0.802025 0.005,-2.106007 -0.58217,-2.106007 -0.58713,0 -0.94759,1.303982 -0.58216,2.106007 0.16843,0.369665 0.4304,0.672118 0.58216,0.672118 0.15176,0 0.41374,-0.302453 0.58217,-0.672118 z m 1.28614,0.559381 c -0.46092,-0.555384 -0.2446,-2.551281 0.3145,-2.901671 0.75768,-0.474837 1.37629,0.116821 1.47138,1.407263 0.0453,0.614398 -0.0586,1.286881 -0.23083,1.494408 -0.40152,0.483794 -1.15353,0.483794 -1.55505,0 z m 1.35969,-0.559381 c 0.36543,-0.802025 0.005,-2.106007 -0.58216,-2.106007 -0.58714,0 -0.9476,1.303982 -0.58217,2.106007 0.16843,0.369665 0.4304,0.672118 0.58217,0.672118 0.15176,0 0.41373,-0.302453 0.58216,-0.672118 z m 2.60906,0.559381 c -0.46092,-0.555384 -0.2446,-2.551281 0.3145,-2.901671 0.75768,-0.474837 1.37629,0.116821 1.47138,1.407263 0.0453,0.614398 -0.0586,1.286881 -0.23083,1.494408 -0.40152,0.483794 -1.15353,0.483794 -1.55505,0 z m 1.35969,-0.559381 c 0.36543,-0.802025 0.005,-2.106007 -0.58216,-2.106007 -0.58714,0 -0.9476,1.303982 -0.58217,2.106007 0.16843,0.369665 0.4304,0.672118 0.58217,0.672118 0.15176,0 0.41373,-0.302453 0.58216,-0.672118 z m 1.28615,0.559381 c -0.17223,-0.207527 -0.27611,-0.88001 -0.23084,-1.494408 0.0951,-1.290442 0.7137,-1.8821 1.47138,-1.407263 0.5591,0.35039 0.77543,2.346287 0.3145,2.901671 -0.40151,0.483794 -1.15353,0.483794 -1.55504,0 z m 1.35968,-0.559381 c 0.36543,-0.802025 0.005,-2.106007 -0.58216,-2.106007 -0.58713,0 -0.94759,1.303982 -0.58217,2.106007 0.16843,0.369665 0.43041,0.672118 0.58217,0.672118 0.15176,0 0.41373,-0.302453 0.58216,-0.672118 z"
       id="path1" /></g></svg>
