<?xml version="1.0" encoding="UTF-8" standalone="no"?>
<!-- Created with Inkscape (http://www.inkscape.org/) -->

<svg
   width="338.1665"
   height="109.26636"
   viewBox="0 0 89.473221 28.910057"
   version="1.1"
   id="svg1"
   inkscape:version="1.3.2 (091e20ef0f, 2023-11-25)"
   sodipodi:docname="brainmaid-logo.svg"
   xml:space="preserve"
   xmlns:inkscape="http://www.inkscape.org/namespaces/inkscape"
   xmlns:sodipodi="http://sodipodi.sourceforge.net/DTD/sodipodi-0.dtd"
   xmlns="http://www.w3.org/2000/svg"
   xmlns:svg="http://www.w3.org/2000/svg"><sodipodi:namedview
     id="namedview1"
     pagecolor="#939393"
     bordercolor="#000000"
     borderopacity="0.25"
     inkscape:showpageshadow="true"
     inkscape:pageopacity="0.0"
     inkscape:pagecheckerboard="true"
     inkscape:deskcolor="#d1d1d1"
     inkscape:document-units="mm"
     borderlayer="true"
     showgrid="false"
     inkscape:zoom="0.44025756"
     inkscape:cx="5280.9996"
     inkscape:cy="1836.425"
     inkscape:window-width="3776"
     inkscape:window-height="2027"
     inkscape:window-x="26"
     inkscape:window-y="23"
     inkscape:window-maximized="0"
     inkscape:current-layer="layer1"
     labelstyle="below"
     inkscape:clip-to-page="false"><inkscape:grid
       id="grid1"
       units="mm"
       originx="-1931.645"
       originy="-518.45801"
       spacingx="4.9999999"
       spacingy="4.9999999"
       empcolor="#0099e5"
       empopacity="0.30196078"
       color="#0099e5"
       opacity="0.14901961"
       empspacing="5"
       dotted="false"
       gridanglex="30"
       gridanglez="30"
       visible="false" /><inkscape:page
       x="-1.7693673e-06"
       y="1.217165e-06"
       width="89.473221"
       height="28.910057"
       id="page3"
       margin="0"
       bleed="0" /></sodipodi:namedview><defs
     id="defs1" /><g
     inkscape:label="Layer 1"
     inkscape:groupmode="layer"
     id="layer1"
     transform="translate(-1931.645,-518.45801)"><rect
       style="fill:none;fill-opacity:1;stroke:#ffffff;stroke-width:0.83009;stroke-dasharray:none;stroke-opacity:1"
       id="rect1-5-8-5"
       width="88.64315"
       height="28.079992"
       x="1932.0601"
       y="518.87305"
       inkscape:export-filename="white-logo.png"
       inkscape:export-xdpi="1419.4191"
       inkscape:export-ydpi="1419.4191" /><g
       id="g3-6-5-4-22-3"
       transform="matrix(0.41600548,0,0,0.41600548,1978.6953,549.95891)"
       style="fill:#ffffff;fill-opacity:1;stroke:none;stroke-width:1.24722;stroke-dasharray:none;stroke-opacity:1"><g
         id="g2-9-3-6-3-61-5"
         transform="translate(-63.165427,8.6885308)"
         style="fill:#ffffff;fill-opacity:1;stroke:none;stroke-width:1.24722;stroke-dasharray:none;stroke-opacity:1"><path
           d="M -9.3818454,-34.984412 H -20.824212 c -0.552285,0 -1,-0.447716 -1,-1 v -3 h -3.115947 c -0.552285,0 -1,-0.447716 -1,-1 v -4.171343 l -3.447,-1.718 c -0.538645,-0.268902 -0.719306,-0.949315 -0.385,-1.45 l 3.832,-5.75 v -1.7 c 0.0013,-6.07422 4.925783,-10.99765 11,-10.99765 6.0742161,0 10.9987046,4.92343 10.9999996,10.99765 -0.2467472,10.87342 -4.204739,9.190023 -4.3689902,13.304632 l -0.072696,5.484711 c -0.00366,0.276118 -0.1119288,0.526142 -0.2928932,0.707107 -0.1809644,0.180964 -0.4309645,0.292893 -0.7071066,0.292893 z m -10.4423666,-2 h 9.442366 l 0.11163,-5.682594 c -0.102553,-2.601106 4.5783172,-3.221492 4.3300566,-12.010667 -0.1403201,-4.967757 -4.030265,-9.093957 -8.9999996,-9.093957 -4.969734,0 -8.998829,4.028137 -9,8.997875 v 2 c -3.12e-4,0.197479 -0.05874,0.390499 -0.168,0.555 l -3.372,5.057 2.987,1.493 c 0.339052,0.169425 0.553177,0.515974 0.553,0.895 v 3.789343 h 3.115947 c 0.552285,0 1,0.447715 1,1 z"
           id="path1-5-94-2-1-0-6"
           style="fill:#ffffff;fill-opacity:1;stroke:none;stroke-width:1.24722;stroke-dasharray:none;stroke-opacity:1"
           sodipodi:nodetypes="ssscsscccccsccssscccsscccccccssc" /><path
           d="m -8.9401594,-56.440755 a 6.709,6.709 0 0 0 -5.6079996,2.605 l -0.538,-0.6 a 3.6,3.6 0 0 1 0,-4.67 l 0.146,-0.168 a 3.448,3.448 0 0 1 0.945,1.857 l 1.971,-0.341 a 5.393,5.393 0 0 0 -1.278,-2.684 l -0.892,-1 a 1.031,1.031 0 0 0 -1.492,0 l -0.892,1 a 5.6,5.6 0 0 0 -1.272,4.6 6.76,6.76 0 0 0 -3.09,-0.6 1,1 0 0 0 -1,1 v 1 a 6.662,6.662 0 0 0 3.527,5.883 l 0.944,-1.764 a 4.665,4.665 0 0 1 -2.471,-4.07 4.673,4.673 0 0 1 4,4.619 v 5 h 2 v -3.034 a 6.676,6.676 0 0 0 5.9999996,-6.633 v -1 a 1,1 0 0 0 -1,-1 z m -4.9999996,6.619 a 4.674,4.674 0 0 1 4.0000006,-4.571 4.674,4.674 0 0 1 -4.0000006,4.571 z"
           id="path2-0-8-9-4-6-2"
           style="fill:#ffffff;fill-opacity:1;stroke:none;stroke-width:1.24722;stroke-dasharray:none;stroke-opacity:1" /></g></g><circle
       style="fill:none;fill-opacity:1;stroke:#ffffff;stroke-width:0.963819;stroke-dasharray:none;stroke-opacity:1"
       id="path3-6-9-9"
       cx="1946.1102"
       cy="532.95123"
       r="9.1549053" /><text
       xml:space="preserve"
       style="font-size:8.76475px;line-height:0;font-family:'FiraCode Nerd Font';-inkscape-font-specification:'FiraCode Nerd Font';letter-spacing:0.001826px;word-spacing:0.000913px;fill:#ffffff;fill-opacity:1;stroke:none;stroke-width:0.231908;stroke-dasharray:none;stroke-opacity:1"
       x="2065.2717"
       y="505.60376"
       id="text4-3-2-7-3-7"
       transform="scale(0.94891957,1.0538301)"><tspan
         sodipodi:role="line"
         id="tspan4-0-6-1-6-0"
         style="font-style:normal;font-variant:normal;font-weight:normal;font-stretch:normal;font-family:'DejaVu Sans';-inkscape-font-specification:'DejaVu Sans';fill:#ffffff;fill-opacity:1;stroke:none;stroke-width:0.231908;stroke-dasharray:none;stroke-opacity:1"
         x="2065.2717"
         y="505.60376">HUMANMADE</tspan></text><text
       xml:space="preserve"
       style="font-size:4.7725px;line-height:0;font-family:'FiraCode Nerd Font';-inkscape-font-specification:'FiraCode Nerd Font';letter-spacing:0.000994273px;word-spacing:0.000497135px;fill:#ffffff;fill-opacity:1;stroke:none;stroke-width:0.126276;stroke-dasharray:none;stroke-opacity:1"
       x="2065.4824"
       y="512.71149"
       id="text4-3-2-7-3-7-5"
       transform="scale(0.94891957,1.0538301)"><tspan
         sodipodi:role="line"
         id="tspan4-0-6-1-6-0-6"
         style="font-style:normal;font-variant:normal;font-weight:normal;font-stretch:normal;font-family:'DejaVu Sans';-inkscape-font-specification:'DejaVu Sans';fill:#ffffff;fill-opacity:1;stroke:none;stroke-width:0.126276;stroke-dasharray:none;stroke-opacity:1"
         x="2065.4824"
         y="512.71149">HUMANMADEMARK.COM</tspan></text><path
       style="fill:#000000;fill-opacity:1;stroke:#ffffff;stroke-width:1.00441;stroke-dasharray:none;stroke-opacity:1"
       d="m 1958.6268,534.64594 57.137,10e-6 h 1.0706"
       id="path4-1-1-9" /></g></svg>
