<?xml version="1.0" encoding="UTF-8" standalone="no"?>
<!-- Created with Inkscape (http://www.inkscape.org/) -->

<svg
   width="336.01172"
   height="105.00952"
   viewBox="0 0 88.903101 27.783769"
   version="1.1"
   id="svg1"
   inkscape:version="1.3.2 (091e20ef0f, 2023-11-25)"
   sodipodi:docname="4kbadge.svg"
   xml:space="preserve"
   xmlns:inkscape="http://www.inkscape.org/namespaces/inkscape"
   xmlns:sodipodi="http://sodipodi.sourceforge.net/DTD/sodipodi-0.dtd"
   xmlns="http://www.w3.org/2000/svg"
   xmlns:svg="http://www.w3.org/2000/svg"><sodipodi:namedview
     id="namedview1"
     pagecolor="#1a1a1a"
     bordercolor="#000000"
     borderopacity="0.25"
     inkscape:showpageshadow="true"
     inkscape:pageopacity="0.0"
     inkscape:pagecheckerboard="true"
     inkscape:deskcolor="#d1d1d1"
     inkscape:document-units="mm"
     borderlayer="true"
     showgrid="false"
     inkscape:zoom="1.1906659"
     inkscape:cx="3415.7356"
     inkscape:cy="1513.8587"
     inkscape:window-width="3072"
     inkscape:window-height="1696"
     inkscape:window-x="0"
     inkscape:window-y="0"
     inkscape:window-maximized="1"
     inkscape:current-layer="layer1"
     labelstyle="below"
     inkscape:clip-to-page="false"><inkscape:grid
       id="grid1"
       units="mm"
       originx="-1903.4559"
       originy="-259.71789"
       spacingx="4.9999999"
       spacingy="4.9999999"
       empcolor="#0099e5"
       empopacity="0.30196078"
       color="#0099e5"
       opacity="0.14901961"
       empspacing="5"
       dotted="false"
       gridanglex="30"
       gridanglez="30"
       visible="false" /></sodipodi:namedview><defs
     id="defs1" /><g
     inkscape:label="Layer 1"
     inkscape:groupmode="layer"
     id="layer1"
     transform="translate(-1903.4559,-259.7179)"><g
       id="g3-6-5-4-22-3-2-5-3-2-2-7"
       transform="matrix(0.88871386,0,0,0.88871386,1986.2007,310.4483)"
       style="fill:#ffffff;fill-opacity:1;stroke:none;stroke-width:1.24722;stroke-dasharray:none;stroke-opacity:1"
       inkscape:export-filename="white-logo.svg"
       inkscape:export-xdpi="857.10999"
       inkscape:export-ydpi="857.10999"><g
         id="g2-9-3-6-3-61-5-6-9-6-7-9-6"
         transform="translate(-63.165427,8.6885308)"
         style="fill:#ffffff;fill-opacity:1;stroke:none;stroke-width:1.24722;stroke-dasharray:none;stroke-opacity:1"><path
           d="M -9.3818454,-34.984412 H -20.824212 c -0.552285,0 -1,-0.447716 -1,-1 v -3 h -3.115947 c -0.552285,0 -1,-0.447716 -1,-1 v -4.171343 l -3.447,-1.718 c -0.538645,-0.268902 -0.719306,-0.949315 -0.385,-1.45 l 3.832,-5.75 v -1.7 c 0.0013,-6.07422 4.925783,-10.99765 11,-10.99765 6.0742161,0 10.9987046,4.92343 10.9999996,10.99765 -0.2467472,10.87342 -4.204739,9.190023 -4.3689902,13.304632 l -0.072696,5.484711 c -0.00366,0.276118 -0.1119288,0.526142 -0.2928932,0.707107 -0.1809644,0.180964 -0.4309645,0.292893 -0.7071066,0.292893 z m -10.4423666,-2 h 9.442366 l 0.11163,-5.682594 c -0.102553,-2.601106 4.5783172,-3.221492 4.3300566,-12.010667 -0.1403201,-4.967757 -4.030265,-9.093957 -8.9999996,-9.093957 -4.969734,0 -8.998829,4.028137 -9,8.997875 v 2 c -3.12e-4,0.197479 -0.05874,0.390499 -0.168,0.555 l -3.372,5.057 2.987,1.493 c 0.339052,0.169425 0.553177,0.515974 0.553,0.895 v 3.789343 h 3.115947 c 0.552285,0 1,0.447715 1,1 z"
           id="path1-5-94-2-1-0-6-1-4-0-0-3-5"
           style="fill:#ffffff;fill-opacity:1;stroke:none;stroke-width:1.24722;stroke-dasharray:none;stroke-opacity:1"
           sodipodi:nodetypes="ssscsscccccsccssscccsscccccccssc" /></g></g><g
       id="g3-9-6-9-9"
       transform="matrix(0.89804827,0,0,0.89804827,1889.0321,262.47158)"
       style="fill:#ffffff;fill-opacity:1;stroke:none;stroke-opacity:1"><g
         id="g6-2-0-4-3"
         transform="translate(8.3274651,-15.941644)"
         style="fill:#ffffff;fill-opacity:1;stroke:none;stroke-opacity:1"><path
           d="m 23.345961,35.391177 v -7.459282 c 0.04574,0 0.09148,0.0073 0.137225,0.0073 3.777633,-0.0049 6.593209,-3.485154 5.809201,-7.180538 -0.07516,-0.353276 -0.351147,-0.629258 -0.704423,-0.704423 -3.134684,-0.669475 -6.23409,1.272819 -6.998486,4.385718 -0.0091,-0.0091 -0.01647,-0.01921 -0.02561,-0.02836 -1.420651,-1.426268 -3.468264,-2.033696 -5.436863,-1.612854 -0.353276,0.07516 -0.629258,0.351148 -0.704423,0.704423 -0.783931,3.695019 2.031027,7.175034 5.808286,7.180538 0.09148,0 0.190286,-0.01098 0.285428,-0.01555 v 4.723028 z m 1.097802,-12.430494 c 0.828401,-0.829409 1.971105,-1.266325 3.141542,-1.201178 0.135018,2.451803 -1.889974,4.477223 -4.341805,4.342721 -0.06859,-1.170797 0.36847,-2.314748 1.200263,-3.141543 z m -6.112926,4.684869 c -0.83269,-0.826561 -1.271597,-1.970116 -1.205753,-3.141543 2.453263,-0.138246 4.480569,1.889488 4.341806,4.342721 -1.169154,0.06559 -2.310626,-0.37149 -3.136968,-1.201178 z"
           id="path1-0-6-7-7"
           sodipodi:nodetypes="cccccccccccccccccccccc"
           style="fill:#ffffff;fill-opacity:1;stroke:none;stroke-width:0.914835;stroke-opacity:1" /></g></g><text
       xml:space="preserve"
       style="font-size:16.3998px;line-height:0;font-family:'FiraCode Nerd Font';-inkscape-font-specification:'FiraCode Nerd Font';letter-spacing:0.00341667px;word-spacing:0.00170833px;fill:#ffffff;fill-opacity:1;stroke:none;stroke-width:0.433931;stroke-dasharray:none;stroke-opacity:1"
       x="2043.6754"
       y="256.45084"
       id="text4-3-2-7-3-7-9-9-2-9-9-26-8-4"
       transform="scale(0.94397775,1.059347)"><tspan
         sodipodi:role="line"
         id="tspan4-0-6-1-6-0-2-1-6-1-3-1-4-5"
         style="font-style:normal;font-variant:normal;font-weight:bold;font-stretch:normal;font-family:'Liberation Sans';-inkscape-font-specification:'Liberation Sans Bold';fill:#ffffff;fill-opacity:1;stroke:none;stroke-width:0.433931;stroke-dasharray:none;stroke-opacity:1"
         x="2043.6754"
         y="256.45084">BRAIN</tspan></text><g
       id="g2-50-2"
       transform="matrix(0.76423858,0,0,0.76423858,435.69434,-133.70053)"><text
         xml:space="preserve"
         style="font-size:22.0174px;line-height:0;font-family:'FiraCode Nerd Font';-inkscape-font-specification:'FiraCode Nerd Font';letter-spacing:0.004587px;word-spacing:0.00229351px;fill:#ffffff;fill-opacity:1;stroke:none;stroke-width:0.582568;stroke-dasharray:none;stroke-opacity:1"
         x="2008.6271"
         y="535.81805"
         id="text4-3-2-7-3-7-9-9-2-9-9-2-8-3-5"
         transform="scale(0.97317719,1.0275621)"><tspan
           sodipodi:role="line"
           id="tspan4-0-6-1-6-0-2-1-6-1-3-6-7-6-4"
           style="font-style:normal;font-variant:normal;font-weight:bold;font-stretch:normal;font-family:'Liberation Sans';-inkscape-font-specification:'Liberation Sans Bold';fill:#ffffff;fill-opacity:1;stroke:none;stroke-width:0.582568;stroke-dasharray:none;stroke-opacity:1"
           x="2008.6271"
           y="535.81805">MADE.</tspan></text><text
         xml:space="preserve"
         style="font-size:3.05527px;line-height:0;font-family:'FiraCode Nerd Font';-inkscape-font-specification:'FiraCode Nerd Font';letter-spacing:0.000636524px;word-spacing:0.000318262px;fill:#000000;fill-opacity:1;stroke:none;stroke-width:0.080841;stroke-dasharray:none;stroke-opacity:1"
         x="2116.6807"
         y="522.32397"
         id="text4-3-2-7-3-7-9-9-2-5-9-1-7"
         transform="scale(0.94891957,1.0538301)"><tspan
           sodipodi:role="line"
           id="tspan4-0-6-1-6-0-2-1-6-3-2-0-4"
           style="font-style:normal;font-variant:normal;font-weight:bold;font-stretch:normal;font-family:'Liberation Sans';-inkscape-font-specification:'Liberation Sans Bold';fill:#000000;fill-opacity:1;stroke:none;stroke-width:0.080841;stroke-dasharray:none;stroke-opacity:1"
           x="2116.6807"
           y="522.32397" /></text></g><g
       id="g2-5-6-4"
       transform="matrix(0.59611474,0,0,0.59611474,766.02441,-62.641422)"><text
         xml:space="preserve"
         style="font-size:22.0174px;line-height:0;font-family:'FiraCode Nerd Font';-inkscape-font-specification:'FiraCode Nerd Font';letter-spacing:0.004587px;word-spacing:0.00229351px;fill:#ffffff;fill-opacity:1;stroke:none;stroke-width:0.582568;stroke-dasharray:none;stroke-opacity:1"
         x="-604.46771"
         y="2001.8171"
         id="text4-3-2-7-3-7-9-9-2-9-9-2-8-9-3-3"
         transform="matrix(0,-0.97317719,1.0275621,0,0,0)"><tspan
           sodipodi:role="line"
           id="tspan4-0-6-1-6-0-2-1-6-1-3-6-7-2-2-0"
           style="font-style:normal;font-variant:normal;font-weight:bold;font-stretch:normal;font-family:'Liberation Sans';-inkscape-font-specification:'Liberation Sans Bold';fill:#ffffff;fill-opacity:1;stroke:none;stroke-width:0.582568;stroke-dasharray:none;stroke-opacity:1"
           x="-604.46771"
           y="2001.8171">ORG</tspan></text><text
         xml:space="preserve"
         style="font-size:3.05527px;line-height:0;font-family:'FiraCode Nerd Font';-inkscape-font-specification:'FiraCode Nerd Font';letter-spacing:0.000636524px;word-spacing:0.000318262px;fill:#000000;fill-opacity:1;stroke:none;stroke-width:0.080841;stroke-dasharray:none;stroke-opacity:1"
         x="2116.6807"
         y="522.32397"
         id="text4-3-2-7-3-7-9-9-2-5-9-2-0-7"
         transform="scale(0.94891957,1.0538301)"><tspan
           sodipodi:role="line"
           id="tspan4-0-6-1-6-0-2-1-6-3-2-8-6-8"
           style="font-style:normal;font-variant:normal;font-weight:bold;font-stretch:normal;font-family:'Liberation Sans';-inkscape-font-specification:'Liberation Sans Bold';fill:#000000;fill-opacity:1;stroke:none;stroke-width:0.080841;stroke-dasharray:none;stroke-opacity:1"
           x="2116.6807"
           y="522.32397" /></text></g></g></svg>
