<svg xmlns="http://www.w3.org/2000/svg" xmlns:svg="http://www.w3.org/2000/svg" width="291.51083mm" height="85.117409mm" viewBox="0 0 291.51083 85.117409" version="1.1" id="svg1" xml:space="preserve"><defs id="defs1"/><g id="layer1" transform="translate(-2.2685282,-44.909501)"><circle style="fill:#777777;fill-opacity:1;stroke:#797979;stroke-width:0.964875;stroke-dasharray:none;stroke-opacity:1" id="path2-6" cx="6.7335324" cy="91.594719" r="3.9825666"/><circle style="fill:#777777;fill-opacity:1;stroke:#797979;stroke-width:0.590145;stroke-dasharray:none;stroke-opacity:1" id="path2-6-2" cx="160.62071" cy="64.058495" r="2.4358456"/><circle style="fill:#777777;fill-opacity:1;stroke:#797979;stroke-width:0.590145;stroke-dasharray:none;stroke-opacity:1" id="path2-6-2-3" cx="222.614" cy="83.988632" r="2.4358456"/><circle style="fill:#777777;fill-opacity:1;stroke:#797979;stroke-width:0.590145;stroke-dasharray:none;stroke-opacity:1" id="path2-6-2-3-2" cx="92.600662" cy="80.834915" r="2.4358456"/><circle style="fill:#777777;fill-opacity:1;stroke:#797979;stroke-width:0.590145;stroke-dasharray:none;stroke-opacity:1" id="path2-6-2-3-2-7" cx="72.245918" cy="47.640419" r="2.4358456"/><circle style="fill:#777777;fill-opacity:1;stroke:#797979;stroke-width:0.30434;stroke-dasharray:none;stroke-opacity:1" id="path2-6-2-3-2-7-2" cx="82.447754" cy="62.875134" r="1.2561769"/><circle style="fill:#777777;fill-opacity:1;stroke:#797979;stroke-width:0.30434;stroke-dasharray:none;stroke-opacity:1" id="path2-6-2-3-2-7-2-9" cx="84.664162" cy="89.219521" r="1.2561769"/><circle style="fill:#777777;fill-opacity:1;stroke:#797979;stroke-width:0.30434;stroke-dasharray:none;stroke-opacity:1" id="path2-6-2-3-2-7-2-9-9" cx="226.39268" cy="87.957108" r="1.2561769"/><path style="fill:#777777;fill-opacity:1;stroke:#797979;stroke-width:0.716557;stroke-dasharray:none;stroke-opacity:1" d="M 7.3645715,91.452287 72.600896,47.505503" id="path3"/><path style="fill:#777777;fill-opacity:1;stroke:#797979;stroke-width:0.623995;stroke-dasharray:none;stroke-opacity:1" d="M 7.9002862,92.742895 34.512483,119.56889" id="path4"/><path style="fill:#777777;fill-opacity:1;stroke:#797979;stroke-width:0.69594;stroke-dasharray:none;stroke-opacity:1" d="M 42.782902,122.89349 84.728766,89.302637" id="path5"/><path style="fill:#777777;fill-opacity:1;stroke:#797979;stroke-width:0.716557;stroke-dasharray:none;stroke-opacity:1" d="m 85.054172,88.793407 7.926643,-7.96114" id="path6"/><path style="fill:#777777;fill-opacity:1;stroke:#797979;stroke-width:0.716557;stroke-dasharray:none;stroke-opacity:1" d="M 92.033676,79.80912 82.669329,62.866201" id="path7"/><path style="fill:#777777;fill-opacity:1;stroke:#797979;stroke-width:0.716557;stroke-dasharray:none;stroke-opacity:1" d="M 81.880223,62.03008 72.626903,47.723535" id="path8"/><path style="fill:#777777;fill-opacity:1;stroke:#797979;stroke-width:0.716557;stroke-dasharray:none;stroke-opacity:1" d="M 92.592252,81.031795 160.97554,64.485933" id="path9"/><path style="fill:#777777;fill-opacity:1;stroke:#797979;stroke-width:0.716557;stroke-dasharray:none;stroke-opacity:1" d="M 270.99575,112.92636 226.46538,87.962286" id="path10"/><path style="fill:#777777;fill-opacity:1;stroke:#797979;stroke-width:0.716557;stroke-dasharray:none;stroke-opacity:1" d="m 160.62147,64.087373 62.18389,20.11888" id="path11"/><path style="fill:#777777;fill-opacity:1;stroke:#797979;stroke-width:0.716557;stroke-dasharray:none;stroke-opacity:1" d="m 223.94953,84.513796 2.41684,3.524004" id="path12"/><path style="fill:#777777;fill-opacity:1;stroke:#797979;stroke-width:0.124201;stroke-opacity:1" d="m 42.524561,129.96113 c -0.02241,-0.004 -0.132438,-0.0223 -0.244512,-0.0409 -0.545607,-0.0902 -1.035041,-0.25532 -1.833803,-0.61845 -0.216159,-0.0983 -0.400086,-0.17866 -0.408726,-0.17866 -0.0086,0 -0.129284,0.0466 -0.268085,0.10338 -0.552398,0.22636 -1.07462,0.3729 -1.578673,0.443 -0.319713,0.0445 -0.898766,0.0728 -0.898766,0.0441 0,-0.0118 1.102613,-1.09906 1.323277,-1.30529 l 0.09258,-0.0865 0.143795,0.0972 c 0.226298,0.15296 0.660885,0.40259 1.026213,0.58944 l 0.165184,0.0846 0.08747,-0.044 c 0.04811,-0.0242 0.188691,-0.1028 0.312394,-0.17451 l 0.224913,-0.13041 -0.224913,-0.12522 c -0.797604,-0.44406 -1.274042,-0.7259 -1.287834,-0.76185 -0.005,-0.0133 0.04244,-0.12432 0.10555,-0.24692 0.331488,-0.6438 0.444768,-1.1417 0.449412,-1.97524 0.0018,-0.32232 -0.0025,-0.38949 -0.03534,-0.55423 -0.165865,-0.83167 -0.500069,-1.49633 -1.004139,-1.997 -0.382274,-0.37971 -0.730246,-0.58722 -1.297341,-0.77367 -0.157051,-0.0516 -0.322094,-0.11262 -0.366769,-0.13554 -0.145677,-0.0747 -0.150925,-0.0797 -0.600735,-0.57207 -0.200232,-0.21917 -0.738942,-0.70244 -1.004616,-0.90122 -0.247159,-0.18493 -0.489538,-0.31283 -0.660183,-0.34837 -0.140033,-0.0291 -0.447735,-0.0246 -0.594981,0.009 -0.291732,0.0662 -0.725101,0.32619 -0.900497,0.54036 -0.131166,0.16017 -0.119521,0.2743 0.03521,0.34513 0.0824,0.0377 0.118107,0.0426 0.392394,0.0537 0.165954,0.007 0.345531,0.0207 0.399053,0.0311 0.191336,0.0373 0.362419,0.1199 0.53842,0.25986 0.181028,0.14396 0.645928,0.62605 0.693337,0.71897 0.01684,0.0331 0.07205,0.1766 0.122585,0.31889 0.09869,0.27787 0.220663,0.53219 0.34301,0.71519 0.07543,0.11284 0.236905,0.33117 0.560537,0.75794 0.303333,0.4 0.383457,0.5729 0.381444,0.82319 -9.85e-4,0.11775 -0.0094,0.16686 -0.04276,0.24906 -0.06449,0.15873 -0.139568,0.27099 -0.281355,0.42073 l -0.130413,0.13772 -0.220063,-0.19001 c -1.215745,-1.04969 -2.163882,-1.97085 -2.952452,-2.86846 -0.306973,-0.34942 -0.521351,-0.61469 -0.82909,-1.02595 -0.154131,-0.20596 -0.285968,-0.37661 -0.292991,-0.37921 -0.02437,-0.009 -0.156389,0.30836 -0.233789,0.562 l -0.04072,0.13345 0.238833,0.29852 c 1.127161,1.40885 2.149587,2.47629 3.458567,3.61079 0.16608,0.14393 0.310994,0.27257 0.322041,0.28589 0.01684,0.0203 -0.0096,0.053 -0.163679,0.20173 -0.315215,0.30448 -1.569887,1.454 -1.923467,1.76225 l -0.159093,0.13869 -0.0916,-0.0782 c -0.12366,-0.10576 -0.53296,-0.54683 -0.697627,-0.75195 -0.118967,-0.14819 -0.263252,-0.35356 -0.389445,-0.55432 -0.07785,-0.12386 -0.30036,-0.56276 -0.402107,-0.79317 -0.233955,-0.52976 -0.397798,-1.16012 -0.45904,-1.76603 -0.02549,-0.25214 -0.02558,-0.94102 -1.61e-4,-1.17848 0.03169,-0.29599 0.09668,-0.65846 0.165399,-0.92243 l 0.06329,-0.24307 -0.208646,-0.30971 c -0.712173,-1.05716 -1.063053,-1.85437 -1.06543,-2.42068 -0.0012,-0.27626 0.05537,-0.44976 0.196949,-0.60447 0.09768,-0.10675 0.223219,-0.17812 0.403433,-0.22937 0.108398,-0.0308 0.170218,-0.037 0.374346,-0.0373 0.525345,-8e-4 1.113593,0.15623 1.981151,0.52911 0.188731,0.0811 0.349868,0.14334 0.358084,0.13827 0.0083,-0.005 0.0975,-0.0683 0.198404,-0.14056 1.195201,-0.85557 2.694907,-1.24604 4.15385,-1.08152 1.022686,0.11533 2.010115,0.50085 2.860675,1.11691 0.259709,0.1881 0.424063,0.33124 0.718454,0.62569 0.492462,0.49256 0.80639,0.93326 1.115535,1.56603 0.405348,0.82967 0.602038,1.67154 0.605348,2.59095 0.002,0.55341 -0.04645,0.96676 -0.174392,1.48827 -0.09628,0.39248 -0.318435,0.98831 -0.480464,1.2887 -0.03554,0.0659 -0.06461,0.12956 -0.06461,0.14146 0,0.012 0.05245,0.10124 0.116566,0.19843 0.66827,1.01359 0.997301,1.84321 0.942961,2.37763 -0.04221,0.41515 -0.279497,0.66019 -0.700902,0.72383 -0.129769,0.0196 -0.400923,0.0341 -0.456424,0.0242 z m 0.228871,-0.62621 c 0.585029,-0.11097 0.59301,-0.71478 0.02254,-1.70513 -0.09071,-0.1575 -0.301289,-0.48223 -0.361627,-0.55768 l -0.03027,-0.0379 -0.06273,0.095 c -0.333269,0.5043 -0.885798,1.07519 -1.472175,1.52109 -0.06472,0.0492 -0.117694,0.0955 -0.117694,0.10291 0,0.0232 0.540727,0.2606 0.882225,0.38732 0.437228,0.16222 0.896486,0.24057 1.139738,0.19442 z m -1.278422,-3.91986 c 0.134462,-0.0399 0.291964,-0.15925 0.703784,-0.53317 0.306998,-0.27875 0.351102,-0.35288 0.352094,-0.59195 6.4e-4,-0.15995 -0.02015,-0.22358 -0.115616,-0.35325 -0.102665,-0.13945 -0.35776,-0.40004 -0.437177,-0.44657 -0.167388,-0.0981 -0.431752,-0.0899 -0.588834,0.0183 -0.134156,0.0924 -0.474277,0.37955 -0.654906,0.55292 -0.212685,0.20415 -0.263702,0.29763 -0.263702,0.48324 0,0.16693 0.03681,0.26238 0.168982,0.43814 0.148399,0.19735 0.305416,0.34876 0.422128,0.40709 0.08229,0.041 0.118142,0.0493 0.215422,0.0493 0.06419,0 0.1532,-0.0107 0.197818,-0.0241 z m -0.907017,-1.52282 c 0.09501,-0.0361 0.232953,-0.1434 0.798436,-0.62109 0.464273,-0.39218 0.748881,-0.6475 0.838474,-0.75217 0.08153,-0.0953 0.112338,-0.20838 0.105245,-0.38624 -0.0068,-0.17204 -0.03193,-0.22584 -0.203997,-0.43814 -0.169681,-0.20935 -0.345695,-0.37025 -0.440301,-0.40249 -0.08554,-0.0291 -0.323671,-0.0352 -0.410011,-0.0103 -0.06212,0.0179 -0.184505,0.10918 -0.546221,0.40771 -0.611124,0.50438 -1.014619,0.85566 -1.077399,0.93797 -0.02411,0.0316 -0.06354,0.0995 -0.08764,0.15094 -0.03683,0.0786 -0.0438,0.11558 -0.04371,0.23206 1.03e-4,0.12085 0.0061,0.14995 0.04693,0.22788 0.06967,0.13291 0.283725,0.39201 0.462692,0.56007 0.118985,0.11173 0.390343,0.15746 0.55748,0.0939 z m -1.100562,-1.44479 c 0.118161,-0.0307 0.201313,-0.0895 0.612006,-0.43235 0.696102,-0.58107 1.07386,-0.92631 1.126514,-1.02952 0.04138,-0.0811 0.06485,-0.27092 0.04701,-0.38045 -0.02499,-0.15354 -0.105907,-0.2737 -0.364678,-0.54156 -0.164879,-0.17066 -0.2191,-0.20909 -0.340612,-0.24145 -0.184216,-0.049 -0.340437,-0.0173 -0.503344,0.10197 -0.322821,0.23655 -1.391662,1.15923 -1.493907,1.28963 -0.06739,0.0859 -0.106479,0.21771 -0.105584,0.35606 6.38e-4,0.10161 0.0083,0.13079 0.06028,0.22967 0.142308,0.27083 0.485463,0.61819 0.649009,0.65699 0.0883,0.021 0.212008,0.0174 0.313301,-0.009 z m -7.424831,-1.3973 c 0.283898,-0.53778 0.564516,-0.93153 1.020733,-1.43223 l 0.217033,-0.23819 -0.04402,-0.0201 c -0.126437,-0.0579 -0.539204,-0.21592 -0.696125,-0.26648 -0.260206,-0.0838 -0.448166,-0.11327 -0.733461,-0.11489 -0.217562,-9.8e-4 -0.253016,0.002 -0.321669,0.0338 -0.197556,0.0901 -0.275444,0.21176 -0.286741,0.44804 -0.01272,0.26613 0.06616,0.53606 0.282468,0.96663 0.130377,0.2595 0.441918,0.78894 0.464959,0.79014 0.0048,2.4e-4 0.0483,-0.0747 0.09683,-0.16664 z" id="path14"/><path id="path15" style="fill:#777777;fill-opacity:1;stroke:#797979;stroke-width:0.288438;stroke-opacity:1" d="m 280.49941,120.74592 -6.793,-3.22904 -2.52011,11.13672 -2.52011,-11.13672 -6.79302,3.22904 3.22904,-6.79302 -16.02711,-2.52011 16.02711,-2.52012 -3.22904,-6.79302 6.79302,3.22905 2.52011,-11.262766 2.52011,11.262766 6.793,-3.22905 -3.22902,6.79302 16.48716,2.52012 -16.48716,2.52011 z"/></g></svg>